<svg xmlns="http://www.w3.org/2000/svg" viewBox="0 0 300 200" width="100%" height="100%">
  <style>
    .chart-line { stroke: #FFFFFF; stroke-width: 3; fill: none; }
    .chart-area { fill: #FFFFFF; opacity: 0.1; }
  </style>
  <path class="chart-line" d="M0,50 C20,80 40,60 60,90 C80,120 100,100 120,130 C140,160 160,140 180,170 C200,180 220,150 240,160 C260,170 280,150 300,180" />
  <path class="chart-area" d="M0,50 C20,80 40,60 60,90 C80,120 100,100 120,130 C140,160 160,140 180,170 C200,180 220,150 240,160 C260,170 280,150 300,180 L300,200 L0,200 Z" />
</svg>