<svg xmlns="http://www.w3.org/2000/svg" viewBox="0 0 300 200" width="100%" height="100%">
  <style>
    .chart-line { stroke: #00FFA3; stroke-width: 3; fill: none; }
    .chart-area { fill: #00FFA3; opacity: 0.2; }
  </style>
  <path class="chart-line" d="M0,100 C20,120 40,90 60,110 C80,130 100,80 120,60 C140,40 160,70 180,50 C200,30 220,60 240,40 C260,20 280,50 300,30" />
  <path class="chart-area" d="M0,100 C20,120 40,90 60,110 C80,130 100,80 120,60 C140,40 160,70 180,50 C200,30 220,60 240,40 C260,20 280,50 300,30 L300,200 L0,200 Z" />
</svg>