<svg xmlns="http://www.w3.org/2000/svg" viewBox="0 0 300 200" width="100%" height="100%">
  <style>
    .chart-line { stroke: #F7931A; stroke-width: 3; fill: none; }
    .chart-area { fill: #F7931A; opacity: 0.2; }
  </style>
  <path class="chart-line" d="M0,150 C20,140 40,160 60,130 C80,100 100,110 120,80 C140,50 160,70 180,40 C200,10 220,30 240,20 C260,10 280,30 300,20" />
  <path class="chart-area" d="M0,150 C20,140 40,160 60,130 C80,100 100,110 120,80 C140,50 160,70 180,40 C200,10 220,30 240,20 C260,10 280,30 300,20 L300,200 L0,200 Z" />
</svg>