<svg width="32" height="32" viewBox="0 0 32 32" fill="none" xmlns="http://www.w3.org/2000/svg">
  <circle cx="16" cy="16" r="16" fill="#000000"/>
  <path d="M20.5 10c-1.5 0-2.7 0.9-3.4 0.9-0.8 0-1.9-0.9-3.2-0.9-2.4 0-4.6 1.4-5.8 3.6-2.5 4.3-0.6 10.7 1.8 14.2 1.2 1.7 2.6 3.7 4.5 3.6 1.8-0.1 2.5-1.2 4.7-1.2 2.2 0 2.8 1.2 4.7 1.2 1.9-0.1 3.2-1.8 4.4-3.5 1.4-2 2-3.9 2-4 0 0-3.9-1.5-3.9-5.9 0-3.7 3-5.5 3.1-5.5-1.7-2.5-4.3-2.8-5.2-2.8l-0.7 0.3z" fill="white"/>
  <path d="M18.5 8.5c0.9-1.1 1.5-2.6 1.3-4.1-1.3 0.1-2.8 0.8-3.7 1.9-0.8 0.9-1.5 2.4-1.3 3.8 1.4 0.1 2.8-0.7 3.7-1.6z" fill="white"/>
</svg>